<?xml version="1.0" encoding="UTF-8" standalone="no"?>
<svg
   xmlns:dc="http://purl.org/dc/elements/1.1/"
   xmlns:cc="http://creativecommons.org/ns#"
   xmlns:rdf="http://www.w3.org/1999/02/22-rdf-syntax-ns#"
   xmlns:svg="http://www.w3.org/2000/svg"
   xmlns="http://www.w3.org/2000/svg"
   xmlns:sodipodi="http://sodipodi.sourceforge.net/DTD/sodipodi-0.dtd"
   xmlns:inkscape="http://www.inkscape.org/namespaces/inkscape"
   width="300mm"
   height="170mm"
   viewBox="0 0 300 170"
   version="1.1"
   id="svg8"
   sodipodi:docname="circuits.svg"
   inkscape:version="1.0.1 (1.0.1+r74)">
  <defs
     id="defs2" />
  <sodipodi:namedview
     id="base"
     pagecolor="#ffffff"
     bordercolor="#666666"
     borderopacity="1.0"
     inkscape:pageopacity="0.0"
     inkscape:pageshadow="2"
     inkscape:zoom="0.66182017"
     inkscape:cx="590.58922"
     inkscape:cy="557.00943"
     inkscape:document-units="mm"
     inkscape:current-layer="layer1"
     inkscape:document-rotation="0"
     showgrid="false"
     inkscape:window-width="1920"
     inkscape:window-height="1007"
     inkscape:window-x="0"
     inkscape:window-y="0"
     inkscape:window-maximized="1" />
  <metadata
     id="metadata5">
    <rdf:RDF>
      <cc:Work
         rdf:about="">
        <dc:format>image/svg+xml</dc:format>
        <dc:type
           rdf:resource="http://purl.org/dc/dcmitype/StillImage" />
        <dc:title></dc:title>
      </cc:Work>
    </rdf:RDF>
  </metadata>
  <g
     inkscape:label="Katman 1"
     inkscape:groupmode="layer"
     id="layer1">
    <g
       id="g1075"
       transform="matrix(1.2645413,0,0,1.2645413,-20.989478,-53.004851)">
      <g
         id="g959"
         transform="matrix(0.26458333,0,0,0.26458333,17.99508,45.227086)">
        <path
           d="m 708.64179,375.66821 a 75.14,75.14 0 0 0 -147.426,-15.84214 c -0.91031,-0.0327 -1.81983,-0.0692 -2.73808,-0.0692 a 75.15811,75.15811 0 0 0 -72.09559,53.969 53.10367,53.10367 0 0 0 -63.01162,15.6736 h 234.38757 c 28.796,0 52.11117,-23.851 50.9369,-52.62306 q -0.0226,-0.55321 -0.0532,-1.10816 z"
           transform="translate(-156,-211.59262)"
           fill="#e6e6e6"
           id="path835" />
        <path
           d="m 156.09567,282.485 a 75.14,75.14 0 0 1 147.426,-15.84215 c 0.91031,-0.0327 1.81983,-0.0692 2.73809,-0.0692 a 75.15814,75.15814 0 0 1 72.09559,53.969 53.10362,53.10362 0 0 1 63.01165,15.67366 H 206.9794 c -28.796,0 -52.11117,-23.851 -50.9369,-52.62305 q 0.0226,-0.55322 0.0532,-1.10822 z"
           transform="translate(-156,-211.59262)"
           fill="#e6e6e6"
           id="path837" />
        <polygon
           points="336.372,145.025 151.746,145.025 59.433,304.916 151.746,464.807 336.372,464.807 428.685,304.916 "
           fill="#79e08f"
           id="polygon839" />
        <path
           d="M 323.20031,649.63175 H 476.91769 L 553.77685,516.50861 476.91769,383.385 H 323.20031 l -76.85916,133.12361 z"
           transform="translate(-156,-211.59262)"
           fill="#ffffff"
           id="path841" />
        <rect
           y="463.68649"
           width="888"
           height="2.24072"
           fill="#3f3d56"
           id="rect843"
           x="0" />
        <polygon
           points="692.332,107.751 669.601,68.974 697.681,58.277 705.704,81.008 "
           fill="#a0616a"
           id="polygon845" />
        <path
           d="m 921.20691,544.65335 c -4.39919,6.16423 -38.32264,41.83934 -61.01408,65.53365 -6.298,6.56536 -11.72682,12.22147 -15.41728,16.05908 -3.236,3.35625 -5.13469,5.3219 -5.13469,5.3219 l -10.25586,-21.44791 -4.45273,-9.3065 0.0668,-0.0802 2.79468,-3.57025 26.64935,-34.09728 27.98651,-35.7954 -22.73152,-45.463 28.08011,-4.01144 18.66662,1.09647 4.0649,0.24067 c 0,0 17.38289,56.16019 10.69715,65.52023 z"
           transform="translate(-156,-211.59262)"
           fill="#2f2e41"
           id="path847" />
        <path
           d="m 842.31516,654.2995 c -1.73828,1.73828 -4.76024,-0.48135 -8.03627,-4.27889 -6.77936,-7.86244 -14.69525,-22.46407 -14.69525,-22.46407 l -9.36,-20.05723 c 1.00286,-5.99047 10.17568,-6.75258 14.77547,-6.766 1.56444,0 2.60746,0.0802 2.60746,0.0802 l 0.77557,1.14993 16.39345,24.28258 c 0,0 2.88816,22.70487 -2.46043,28.05346 z"
           transform="translate(-156,-211.59262)"
           fill="#2f2e41"
           id="path849" />
        <path
           d="m 844.77555,626.24608 c 0,0 2.8882,22.70483 -2.46039,28.05342 -1.73828,1.73828 -4.76024,-0.48135 -8.03627,-4.27889 l -4.89389,-39.90054 -1.00286,-8.15657 -0.58835,-4.8004 26.64935,-34.09728 5.74973,47.12118 c -6.29804,6.56536 -11.72687,12.22147 -15.41732,16.05908 z"
           transform="translate(-156,-211.59262)"
           opacity="0.2"
           id="path851" />
        <polygon
           points="750.445,267.3 750.498,267.54 707.295,277.409 703.698,270.215 731.778,266.203 "
           opacity="0.2"
           id="polygon853" />
        <polygon
           points="671.607,208.706 662.246,208.706 664.921,296.958 683.641,449.393 714.395,449.393 701.024,339.746 707.71,278.238 754.51,267.54 741.138,206.032 "
           fill="#2f2e41"
           id="polygon855" />
        <path
           d="m 842.31516,656.9738 c 0,0 -2.6743,18.72008 -1.33715,20.05722 1.33715,1.33714 2.6743,2.6743 2.6743,5.3486 0,2.6743 16.04578,9.36 24.06867,4.01144 8.02289,-5.34856 2.67429,-13.37148 2.67429,-13.37148 l -8.02289,-16.04578 z"
           transform="translate(-156,-211.59262)"
           fill="#2f2e41"
           id="path857" />
        <circle
           cx="680.96655"
           cy="52.259602"
           r="22.73152"
           fill="#a0616a"
           id="circle859" />
        <polygon
           points="694.338,88.363 676.849,81.338 666.258,212.717 739.801,218.066 714.395,83.014 703.03,72.343 "
           fill="#e6e6e6"
           id="polygon861" />
        <path
           d="m 830.52235,288.96215 -13.613,10.99307 -25.40582,13.37148 9.36,84.24034 1.33715,48.13734 c 0,0 -17.38292,42.78874 -4.01144,53.48593 13.37148,10.69719 28.08011,6.68574 25.40581,-16.04578 -2.6743,-22.73152 -8.02288,-38.7773 17.38293,-62.846 25.40581,-24.0687 3.15738,-136.98086 -10.45563,-131.33638 z"
           transform="translate(-156,-211.59262)"
           fill="#2f2e41"
           id="path863" />
        <path
           d="m 857.64776,281.10875 16.759,10.82358 22.73152,12.03433 17.38289,192.54934 -38.7773,12.03433 c 0,0 -21.48359,-222.21938 -18.09611,-227.44158 z"
           transform="translate(-156,-211.59262)"
           fill="#2f2e41"
           id="path865" />
        <path
           d="m 901.14968,440.35578 c 0,0 -20.05722,30.75441 -5.34859,30.75441 14.70863,0 18.72008,-25.40581 18.72008,-25.40581 z"
           transform="translate(-156,-211.59262)"
           fill="#a0616a"
           id="path867" />
        <path
           d="m 818.24649,440.35578 c 0,0 20.05723,30.75441 5.34859,30.75441 -14.70864,0 -18.72008,-25.40581 -18.72008,-25.40581 z"
           transform="translate(-156,-211.59262)"
           fill="#a0616a"
           id="path869" />
        <path
           d="m 838.30372,230.42351 -6.68575,-4.01144 1.33715,2.67429 -5.34859,-1.33715 1.33715,1.33715 -6.68574,-1.33715 2.67429,2.6743 c 0,0 -10.69718,0 -12.03433,10.69719 l -6.68574,1.33714 2.67429,4.01145 v 4.01144 l 2.6743,2.6743 v 4.01144 l 2.6743,6.68575 2.67429,-9.36 c 0,0 12.03434,2.67429 17.38293,-8.02289 0,0 1.33715,4.01144 8.02289,2.6743 l 10.69719,18.72007 c 0,0 1.33714,-8.29895 6.01716,-9.49807 4.68002,-1.19912 2.00573,-11.8963 2.00573,-11.8963 0,0 -4.01145,-4.01145 -4.01145,-6.68574 0,-2.67429 -4.01144,-5.3486 -6.68574,-5.3486 -2.6743,0 -9.36,-5.34859 -9.36,-5.34859 z"
           transform="translate(-156,-211.59262)"
           fill="#2f2e41"
           id="path871" />
        <path
           d="m 802.20071,314.66385 -6.22436,-3.69127 -4.47282,2.35412 c 0,0 -5.3486,2.6743 -6.68574,12.03434 -1.33714,9.36004 -14.70864,66.85741 -14.70864,66.85741 0,0 -1.33714,9.36 5.3486,25.40581 6.68574,16.04581 32.09156,44.1259 32.09156,44.1259 L 831.618,441.69293 795.515,397.567 l 9.36,-36.103 z"
           transform="translate(-156,-211.59262)"
           fill="#2f2e41"
           id="path873" />
        <polygon
           points="730.441,92.374 741.138,92.374 758.521,157.894 763.87,239.46 738.464,230.1 738.464,171.266 "
           fill="#2f2e41"
           id="polygon875" />
        <path
           id="rect877"
           style="fill:#3f3d56"
           d="m 182.70117,171.59375 c 0,28.18555 0,56.37109 0,84.55664 2,0 4,0 6,0 0,-28.85221 0,-57.70443 0,-86.55664 -2,0 -4,0 -6,0 0,0.66667 0,1.33333 0,2 z" />
        <circle
           cx="185.7012"
           cy="258.89401"
           r="5.69344"
           fill="#79e08f"
           id="circle879" />
        <path
           id="rect881"
           style="fill:#3f3d56"
           d="m 225.40234,171.59375 c 0,28.18555 0,56.37109 0,84.55664 2,0 4,0 6,0 0,-28.85221 0,-57.70443 0,-86.55664 -2,0 -4,0 -6,0 0,0.66667 0,1.33333 0,2 z" />
        <circle
           cx="228.40202"
           cy="258.89401"
           r="5.69344"
           fill="#3f3d56"
           id="circle883" />
        <path
           id="rect885"
           style="fill:#3f3d56"
           d="m 300.36523,171.59375 c 0,28.18555 0,56.37109 0,84.55664 2,0 4,0 6,0 0,-28.85221 0,-57.70443 0,-86.55664 -2,0 -4,0 -6,0 0,0.66667 0,1.33333 0,2 z" />
        <circle
           cx="303.36569"
           cy="258.89401"
           r="5.69344"
           fill="#3f3d56"
           id="circle887" />
        <circle
           cx="272.05176"
           cy="340.5"
           r="5.69344"
           fill="#3f3d56"
           id="circle889" />
        <circle
           cx="156.2851"
           cy="288.31012"
           r="5.69344"
           fill="#3f3d56"
           id="circle891" />
        <path
           id="polygon893"
           style="fill:#3f3d56"
           d="m 226.40234,234.27539 c 0,1.33333 0,2.66667 0,4 14.2168,0 28.4336,0 42.65039,0 0,33.16016 0,66.32031 0,99.48047 2,0 4,0 6,0 0,-35.16016 0,-70.32031 0,-105.48047 -16.21679,0 -32.43359,0 -48.65039,0 0,0.66667 0,1.33333 0,2 z" />
        <path
           id="polygon897"
           style="fill:#3f3d56"
           d="m 153.33594,270.33398 c 0,1.33334 0,2.66667 0,4 14.21679,0 28.43359,0 42.65039,0 0,33.16016 0,66.32032 0,99.48047 2,0 4,0 6,0 0,-35.16015 0,-70.32031 0,-105.48047 -16.2168,0 -32.4336,0 -48.65039,0 0,0.66667 0,1.33334 0,2 z" />
        <path
           id="polygon901"
           style="fill:#3f3d56"
           d="m 300.41797,225.73633 c 0,1.33333 0,2.66666 0,4 9.1556,0 18.3112,0 27.4668,0 0,33.1595 0,66.31901 0,99.47851 2,0 4,0 6,0 0,-35.1595 0,-70.31901 0,-105.47851 -11.1556,0 -22.3112,0 -33.4668,0 0,0.66666 0,1.33333 0,2 z" />
        <path
           id="polygon903"
           style="fill:#3f3d56"
           d="m 153.28516,233.1543 c 0,17.15364 0,34.30729 0,51.46093 2,0 4,0 6,0 0,-15.82031 0,-31.64062 0,-47.46093 9.472,0 18.94401,0 28.41601,0 0,-2 0,-4 0,-6 -11.472,0 -22.94401,0 -34.41601,0 0,0.66666 0,1.33333 0,2 z" />
        <circle
           cx="228.8765"
           cy="398.85779"
           r="5.69344"
           fill="#3f3d56"
           id="circle905" />
        <path
           id="polygon907"
           style="fill:#3f3d56"
           d="m 197.46094,343.70312 c 0,1.33334 0,2.66667 0,4 9.472,10e-6 18.94401,0 28.41601,0 0,15.82032 0,31.64063 0,47.46094 2,0 4,0 6,0 0,-17.82031 0,-35.64062 0,-53.46094 -11.472,0 -22.94401,10e-6 -34.41601,0 0,0.66667 0,1.33334 0,2 z" />
        <circle
           cx="301.46786"
           cy="356.63144"
           r="5.69344"
           fill="#3f3d56"
           id="circle909" />
        <path
           id="polygon911"
           style="fill:#3f3d56"
           d="m 298.46875,301.47656 c 0,17.15365 0,34.30729 0,51.46094 2,0 4,0 6,0 0,-15.82031 0,-31.64063 0,-47.46094 9.47201,0 18.94401,0 28.41602,0 0,-2 0,-4 0,-6 -11.47201,0 -22.94401,0 -34.41602,0 0,0.66667 0,1.33334 0,2 z" />
      </g>
      <circle
         cx="198.98592"
         cy="378.55847"
         r="5.69344"
         fill="#79e08f"
         id="circle895"
         transform="matrix(0.26458333,0,0,0.26458333,17.99508,45.227087)" />
      <circle
         cx="330.884"
         cy="331.95984"
         r="5.69344"
         fill="#79e08f"
         id="circle899"
         transform="matrix(0.26458333,0,0,0.26458333,17.99508,45.227087)" />
    </g>
  </g>
</svg>
