<?xml version="1.0" encoding="UTF-8" standalone="no"?>
<svg
   xmlns:dc="http://purl.org/dc/elements/1.1/"
   xmlns:cc="http://creativecommons.org/ns#"
   xmlns:rdf="http://www.w3.org/1999/02/22-rdf-syntax-ns#"
   xmlns:svg="http://www.w3.org/2000/svg"
   xmlns="http://www.w3.org/2000/svg"
   xmlns:sodipodi="http://sodipodi.sourceforge.net/DTD/sodipodi-0.dtd"
   xmlns:inkscape="http://www.inkscape.org/namespaces/inkscape"
   id="f4916f78-9504-4b7d-8478-1c39a72a8d9f"
   data-name="Layer 1"
   width="500"
   height="320"
   viewBox="0 0 499.99999 320"
   version="1.1"
   sodipodi:docname="growth-curve.svg"
   inkscape:version="1.0.1 (1.0.1+r74)">
  <metadata
     id="metadata43">
    <rdf:RDF>
      <cc:Work
         rdf:about="">
        <dc:format>image/svg+xml</dc:format>
        <dc:type
           rdf:resource="http://purl.org/dc/dcmitype/StillImage" />
        <dc:title></dc:title>
      </cc:Work>
    </rdf:RDF>
  </metadata>
  <defs
     id="defs41" />
  <sodipodi:namedview
     pagecolor="#ffffff"
     bordercolor="#666666"
     borderopacity="1"
     objecttolerance="10"
     gridtolerance="10"
     guidetolerance="10"
     inkscape:pageopacity="0"
     inkscape:pageshadow="2"
     inkscape:window-width="1920"
     inkscape:window-height="1007"
     id="namedview39"
     showgrid="false"
     inkscape:zoom="1.8152464"
     inkscape:cx="235.72002"
     inkscape:cy="168.42058"
     inkscape:window-x="0"
     inkscape:window-y="0"
     inkscape:window-maximized="1"
     inkscape:current-layer="f4916f78-9504-4b7d-8478-1c39a72a8d9f" />
  <path
     d="M 36.637667,7.3490109 A 6.9253986,6.8886652 0 0 0 29.720046,14.229939 V 305.19493 a 6.9252997,6.8885669 0 0 0 6.917621,6.88046 H 465.53019 a 6.9255963,6.8888619 0 0 0 6.91762,-6.88046 V 14.229939 a 6.9257049,6.8889699 0 0 0 -6.91762,-6.8809281 z"
     fill="#e6e6e6"
     id="path28"
     style="fill:#d3dade;fill-opacity:1;stroke-width:0.985607" />
  <path
     d="m 42.937484,13.495636 a 7.0414461,7.0414461 0 0 0 -7.033538,7.033538 V 297.85105 a 7.0414461,7.0414461 0 0 0 7.033538,7.03355 H 458.92105 a 7.0417576,7.0417576 0 0 0 7.03353,-7.03355 V 20.529174 a 7.0417576,7.0417576 0 0 0 -7.03353,-7.033538 z"
     fill="#ffffff"
     id="path30"
     style="stroke-width:1.00479" />
  <polygon
     points="696.713,254.89 329.713,255 351.608,238.989 438.145,225.264 491.319,211.54 520.512,223.089 560.131,166.937 587.239,172.655 627.901,128.052 648.753,134.914 696.713,56 "
     fill="#79e08f"
     opacity="0.2"
     id="polygon32"
     transform="matrix(1.040717,0,0,1.134912,-281.3281,-32.931886)" />
  <path
     d="m 63.753,256.34583 a 2.1007031,2.1007031 0 0 1 0,-4.2014 c 97.06825,0 189.64078,-19.43562 260.66567,-54.72702 66.59988,-33.09325 109.04065,-77.96911 116.43824,-123.121904 a 2.1006297,2.1006297 0 1 1 4.14602,0.679032 c -3.84241,23.454945 -16.31635,46.462662 -37.0731,68.384642 -20.47161,21.62094 -47.93973,41.07505 -81.64124,57.82062 -71.59418,35.57455 -164.83134,55.16603 -262.53559,55.16603 z"
     fill="#79e08f"
     id="path34"
     style="fill:#57db71;fill-opacity:1;stroke-width:1.05036" />
  <polygon
     points="711.827,252.904 711.827,254.904 329.827,254.904 329.827,66.176 331.827,66.176 331.827,252.904 "
     fill="#e6e6e6"
     id="polygon36"
     transform="translate(-268.074,3.441834)"
     style="fill:#99a7b2;fill-opacity:1" />
</svg>
