<?xml version="1.0" encoding="UTF-8" standalone="no"?>
<svg
   xmlns:dc="http://purl.org/dc/elements/1.1/"
   xmlns:cc="http://creativecommons.org/ns#"
   xmlns:rdf="http://www.w3.org/1999/02/22-rdf-syntax-ns#"
   xmlns:svg="http://www.w3.org/2000/svg"
   xmlns="http://www.w3.org/2000/svg"
   xmlns:sodipodi="http://sodipodi.sourceforge.net/DTD/sodipodi-0.dtd"
   xmlns:inkscape="http://www.inkscape.org/namespaces/inkscape"
   width="300mm"
   height="170mm"
   viewBox="0 0 300 170"
   version="1.1"
   id="svg8"
   sodipodi:docname="imac.svg"
   inkscape:version="1.0.1 (1.0.1+r74)">
  <defs
     id="defs2" />
  <sodipodi:namedview
     id="base"
     pagecolor="#ffffff"
     bordercolor="#666666"
     borderopacity="1.0"
     inkscape:pageopacity="0.0"
     inkscape:pageshadow="2"
     inkscape:zoom="0.46797753"
     inkscape:cx="522.78955"
     inkscape:cy="424.19037"
     inkscape:document-units="mm"
     inkscape:current-layer="g959"
     inkscape:document-rotation="0"
     showgrid="false"
     inkscape:window-width="1920"
     inkscape:window-height="1007"
     inkscape:window-x="0"
     inkscape:window-y="0"
     inkscape:window-maximized="1"
     showguides="true"
     inkscape:guide-bbox="true" />
  <metadata
     id="metadata5">
    <rdf:RDF>
      <cc:Work
         rdf:about="">
        <dc:format>image/svg+xml</dc:format>
        <dc:type
           rdf:resource="http://purl.org/dc/dcmitype/StillImage" />
        <dc:title></dc:title>
      </cc:Work>
    </rdf:RDF>
  </metadata>
  <g
     inkscape:label="Katman 1"
     inkscape:groupmode="layer"
     id="layer1">
    <g
       id="g1075"
       transform="matrix(1.2645413,0,0,1.2645413,-20.989478,-53.004851)">
      <g
         id="g959"
         transform="matrix(0.26458333,0,0,0.26458333,17.99508,45.227086)">
        <g
           id="g1291"
           transform="matrix(0.7908006,0,0,0.7908006,44.055468,38.336514)">
          <polygon
             points="562.14,603.085 448.421,603.085 452.276,552.973 558.285,552.973 "
             fill="#e6e6e6"
             id="polygon1183"
             transform="translate(3.6502854,-175.00066)" />
          <rect
             x="446.28909"
             y="422.30273"
             width="127.21043"
             height="11.5646"
             fill="#e6e6e6"
             id="rect1185" />
          <path
             d="M 726.73021,55.127215 H 292.09462 a 11.56458,11.56458 0 0 0 -11.56458,11.56458 v 0 265.021715 H 738.29481 V 66.691795 a 11.56457,11.56457 0 0 0 -11.56456,-11.56458 z"
             fill="#3f3d56"
             id="path1187" />
          <path
             d="m 280.53004,331.71351 v 43.36719 a 11.56457,11.56457 0 0 0 11.56458,11.56457 h 434.63559 a 11.56459,11.56459 0 0 0 11.5646,-11.56457 v 0 -43.36719 z"
             fill="#e6e6e6"
             id="path1189" />
          <rect
             x="303.65921"
             y="79.2201"
             width="412.47015"
             height="231.29169"
             fill="#e6e6e6"
             id="rect1191" />
          <circle
             cx="509.89429"
             cy="358.69751"
             r="11.56459"
             fill="#3f3d56"
             id="circle1193"
             style="fill:#a6a4b6;fill-opacity:1" />
          <circle
             cx="316.52017"
             cy="86.794685"
             r="2.1946599"
             fill="#ffffff"
             id="circle1195" />
          <circle
             cx="324.85056"
             cy="86.794685"
             r="2.1946599"
             fill="#ffffff"
             id="circle1197" />
          <circle
             cx="333.18094"
             cy="86.794685"
             r="2.1946599"
             fill="#ffffff"
             id="circle1199" />
          <rect
             x="314.3255"
             y="94.252083"
             width="389.91608"
             height="194.24707"
             fill="#ffffff"
             id="rect1201" />
          <path
             d="m 532.24448,159.79812 a 1.37973,1.37973 0 0 0 -1.37842,1.37842 v 69.67578 a 1.37973,1.37973 0 0 0 1.37842,1.37841 h 80.4643 a 1.37973,1.37973 0 0 0 1.37842,-1.37841 v -69.67578 a 1.37973,1.37973 0 0 0 -1.37842,-1.37842 z"
             fill="#e6e6e6"
             id="path1203" />
          <path
             d="m 401.71562,210.72001 a 2.84986,2.84986 0 0 0 0,5.69971 h 75.65234 a 2.84986,2.84986 0 0 0 0,-5.69971 z"
             fill="#e6e6e6"
             id="path1209" />
          <path
             d="m 401.71562,224.27566 a 2.8501,2.8501 0 0 0 0,5.70019 h 34.062 a 2.8501,2.8501 0 0 0 0,-5.70019 z"
             fill="#79e08f"
             id="path1211" />
          <path
             d="m 401.71562,196.72001 a 2.84986,2.84986 0 0 0 0,5.69971 h 75.65234 a 2.84986,2.84986 0 0 0 0,-5.69971 z"
             fill="#e6e6e6"
             id="path1219" />
          <path
             d="m 401.50064,177.24951 c -3.79269,0.007 -3.79269,5.69261 0,5.69971 h 48.84981 c 3.79269,-0.007 3.79269,-5.69261 0,-5.69971 z"
             fill="#e6e6e6"
             id="path1219-3"
             style="fill:#2f2f2f;fill-opacity:1"
             sodipodi:nodetypes="ccccc" />
          <path
             d="m 401.45372,164.07518 a 2.84986,2.84986 0 0 0 0,5.69971 h 75.65233 a 2.84986,2.84986 0 0 0 0,-5.69971 z"
             fill="#e6e6e6"
             id="path1219-3-6"
             style="fill:#2f2f2f;fill-opacity:1" />
        </g>
      </g>
    </g>
  </g>
</svg>
