<?xml version="1.0" encoding="UTF-8" standalone="no"?>
<svg
   xmlns:dc="http://purl.org/dc/elements/1.1/"
   xmlns:cc="http://creativecommons.org/ns#"
   xmlns:rdf="http://www.w3.org/1999/02/22-rdf-syntax-ns#"
   xmlns:svg="http://www.w3.org/2000/svg"
   xmlns="http://www.w3.org/2000/svg"
   xmlns:sodipodi="http://sodipodi.sourceforge.net/DTD/sodipodi-0.dtd"
   xmlns:inkscape="http://www.inkscape.org/namespaces/inkscape"
   id="a6f4e524-a1b8-434a-a0ca-43acb27f4769"
   data-name="Layer 1"
   width="1110.46"
   height="857.68"
   viewBox="0 0 1110.46 857.68"
   version="1.1"
   sodipodi:docname="undraw_prototyping_process_rswj.svg"
   inkscape:version="1.0.1 (1.0.1+r74)">
  <metadata
     id="metadata232">
    <rdf:RDF>
      <cc:Work
         rdf:about="">
        <dc:format>image/svg+xml</dc:format>
        <dc:type
           rdf:resource="http://purl.org/dc/dcmitype/StillImage" />
        <dc:title>prototyping process</dc:title>
      </cc:Work>
    </rdf:RDF>
  </metadata>
  <sodipodi:namedview
     pagecolor="#ffffff"
     bordercolor="#666666"
     borderopacity="1"
     objecttolerance="10"
     gridtolerance="10"
     guidetolerance="10"
     inkscape:pageopacity="0"
     inkscape:pageshadow="2"
     inkscape:window-width="1920"
     inkscape:window-height="1007"
     id="namedview230"
     showgrid="false"
     inkscape:zoom="0.67078842"
     inkscape:cx="629.61201"
     inkscape:cy="266.91001"
     inkscape:window-x="0"
     inkscape:window-y="0"
     inkscape:window-maximized="1"
     inkscape:current-layer="a6f4e524-a1b8-434a-a0ca-43acb27f4769" />
  <defs
     id="defs9">
    <linearGradient
       id="ed123d47-1cc8-43ee-8efc-264e01b6d696"
       x1="2277.26"
       y1="874.51"
       x2="2277.26"
       y2="331.66"
       gradientTransform="translate(-1992)"
       gradientUnits="userSpaceOnUse">
      <stop
         offset="0"
         stop-color="gray"
         stop-opacity="0.25"
         id="stop2" />
      <stop
         offset="0.54"
         stop-color="gray"
         stop-opacity="0.12"
         id="stop4" />
      <stop
         offset="1"
         stop-color="gray"
         stop-opacity="0.1"
         id="stop6" />
    </linearGradient>
  </defs>
  <title
     id="title11">prototyping process</title>
  <ellipse
     cx="412.74875"
     cy="804.06097"
     rx="159.60623"
     ry="36"
     fill="#72e080"
     opacity="0.1"
     id="ellipse13"
     style="stroke-width:0.819772" />
  <path
     d="M387.66,59C425.33,25.8,484.47,19,538.31,21.68,707.39,30,860,110.67,992.05,201.94c47.8,33.05,94.86,68.65,125.88,114.16,63.16,92.62,44.42,220.94-43.4,297.24-29.88,26-66.1,45.87-103.28,63.51-66.12,31.37-137.46,56.55-212.5,63.72-53.51,5.11-107.68.95-160.88-6.18-148.64-19.92-294.54-64-416.82-139.37C127.42,562,76.87,520.86,54.76,467.37s-8-121.27,46.81-152.92c22.65-13.1,49.73-19,76.24-24.57,39-8.17,78.68-16.23,113.9-32.84,36.37-17.17,79.44-50.36,72.24-88.34C356.22,127.93,350,92.14,387.66,59Z"
     transform="translate(-44.77 -21.16)"
     fill="#72e080"
     opacity="0.1"
     id="path15" />
  <path
     d="m 261.80054,149.88387 c 6.76,44.56 -12.05,84.37 -12.05,84.37 0,0 -29.77,-32.43 -36.55,-76.99 -3.79,-25 0.46,-48.48 4.92,-64.299997 a 11,11 0 0 1 19.89,-3 c 8.97,13.759997 20,34.929997 23.79,59.919997 z"
     fill="#72e080"
     id="path17" />
  <path
     d="m 387.50054,220.90387 a 76.91,76.91 0 0 1 19.85,2.51 c 10.91,2.8 11.08,18.25 0.23,21.29 a 77.15,77.15 0 0 1 -19.79,2.94 c -24.53,0.27 -44.56,-12.89 -44.56,-12.89 0,0 19.74,-13.58 44.27,-13.85 z"
     fill="#72e080"
     id="path19" />
  <path
     d="m 318.52054,153.16387 c -22.83,25.09 -27.66,57.88 -27.66,57.88 0,0 32.18,-7.9 55,-33 10.58,-11.63 17.3,-24.91 21.46,-35.81 a 11,11 0 0 0 -15.12,-13.8 c -10.52,5.17 -23.1,13.1 -33.68,24.73 z"
     fill="#72e080"
     id="path21" />
  <rect
     x="511.46"
     y="87.01"
     width="514"
     height="618.97"
     rx="19.8"
     fill="#464353"
     id="rect23" />
  <rect
     x="555.8"
     y="149.45"
     width="425.32"
     height="494.09"
     fill="#72e080"
     opacity="0.1"
     id="rect25" />
  <circle
     cx="768.46"
     cy="676.12"
     r="18.1"
     fill="#fff"
     id="circle27" />
  <path
     d="M813.23,152.92a8.55,8.55,0,1,1,8.55-8.55A8.57,8.57,0,0,1,813.23,152.92Z"
     transform="translate(-44.77 -21.16)"
     fill="#fff"
     id="path29" />
  <path
     d="M813.23,136.32a8.05,8.05,0,1,1-8.05,8.05,8.06,8.06,0,0,1,8.05-8.05m0-1a9.05,9.05,0,1,0,9,9.05,9,9,0,0,0-9-9.05Z"
     transform="translate(-44.77 -21.16)"
     fill="#fff"
     id="path31" />
  <rect
     x="575.56"
     y="302.51"
     width="88.21"
     height="119.92"
     rx="4.3"
     fill="#fff"
     stroke="#fff"
     stroke-miterlimit="10"
     id="rect33" />
  <rect
     x="583.83"
     y="332.73"
     width="71.67"
     height="38.05"
     rx="7.14"
     fill="#72e080"
     opacity="0.5"
     id="rect35" />
  <rect
     x="598.79"
     y="386.3"
     width="41.75"
     height="5.91"
     rx="1.69"
     fill="#72e080"
     id="rect37" />
  <rect
     x="724.69"
     y="302.51"
     width="88.21"
     height="119.92"
     rx="4.3"
     fill="#fff"
     stroke="#fff"
     stroke-miterlimit="10"
     id="rect39" />
  <rect
     x="747.89"
     y="321.24"
     width="42.27"
     height="22.44"
     rx="1.46"
     fill="#72e080"
     opacity="0.5"
     id="rect41" />
  <rect
     x="741.71"
     y="364.71"
     width="53.96"
     height="5.91"
     rx="1.69"
     fill="#72e080"
     id="rect43" />
  <rect
     x="741.71"
     y="375.73"
     width="53.96"
     height="5.91"
     rx="1.69"
     fill="#72e080"
     id="rect45" />
  <rect
     x="873.15"
     y="217.32"
     width="88.21"
     height="119.92"
     rx="4.3"
     fill="#fff"
     stroke="#fff"
     stroke-miterlimit="10"
     id="rect47" />
  <rect
     x="888.54"
     y="235.93"
     width="57.43"
     height="26.8"
     rx="1.46"
     fill="#72e080"
     opacity="0.5"
     id="rect49" />
  <rect
     x="888.54"
     y="274.88"
     width="57.43"
     height="26.8"
     rx="1.46"
     fill="#72e080"
     opacity="0.5"
     id="rect51" />
  <rect
     x="883.95"
     y="323.28"
     width="18.84"
     height="8.27"
     rx="3.83"
     fill="#72e080"
     id="rect53" />
  <rect
     x="907.84"
     y="323.28"
     width="18.84"
     height="8.27"
     rx="3.83"
     fill="#72e080"
     id="rect55" />
  <rect
     x="931.73"
     y="323.28"
     width="18.84"
     height="8.27"
     rx="3.83"
     fill="#72e080"
     id="rect57" />
  <rect
     x="872.94"
     y="387.7"
     width="88.21"
     height="119.92"
     rx="4.3"
     fill="#fff"
     stroke="#fff"
     stroke-miterlimit="10"
     id="rect59" />
  <rect
     x="879.75"
     y="401.72"
     width="26.36"
     height="26.8"
     rx="1.46"
     fill="#72e080"
     opacity="0.5"
     id="rect61" />
  <rect
     x="890.07"
     y="444.84"
     width="53.96"
     height="5.91"
     rx="1.69"
     fill="#72e080"
     id="rect63" />
  <rect
     x="890.07"
     y="456.79"
     width="53.96"
     height="5.91"
     rx="1.69"
     fill="#72e080"
     id="rect65" />
  <rect
     x="890.07"
     y="468.74"
     width="53.96"
     height="5.91"
     rx="1.69"
     fill="#72e080"
     id="rect67" />
  <path
     d="M759.29,380.77l-1.35.65L747,386.68l-1,.47a.54.54,0,0,1-.73-.29.59.59,0,0,1,0-.2v-3.11a.53.53,0,0,0-.53-.53H718.15a.54.54,0,0,1-.54-.53V378.1a.54.54,0,0,1,.54-.53h26.62a.54.54,0,0,0,.53-.54v-3.18a.65.65,0,0,1,0-.2.54.54,0,0,1,.73-.28l1,.47,10.91,5.31,1.35.66A.53.53,0,0,1,759.29,380.77Z"
     transform="translate(-44.77 -21.16)"
     fill="#fff"
     stroke="#fff"
     stroke-miterlimit="10"
     id="path69" />
  <path
     d="M907.32,353.8l-.88,1.21-7.16,9.76-.63.87a.55.55,0,0,1-.78.09.48.48,0,0,1-.12-.16l-1.46-2.74a.55.55,0,0,0-.73-.23l-23.5,12.51a.53.53,0,0,1-.72-.22L869.28,371a.53.53,0,0,1,.22-.72L893,357.79a.53.53,0,0,0,.22-.72l-1.49-2.81a.35.35,0,0,1-.06-.19.52.52,0,0,1,.51-.59l1.07,0,12.12-.44,1.5-.05A.53.53,0,0,1,907.32,353.8Z"
     transform="translate(-44.77 -21.16)"
     fill="#fff"
     stroke="#fff"
     stroke-miterlimit="10"
     id="path71" />
  <path
     d="M907.24,405.06h-1.49l-12.11,0h-1.07a.53.53,0,0,1-.53-.57.45.45,0,0,1,.05-.19l1.34-2.81a.53.53,0,0,0-.25-.71l-24-11.52a.54.54,0,0,1-.25-.72l1.9-3.95a.52.52,0,0,1,.71-.25l24,11.53a.55.55,0,0,0,.72-.25l1.38-2.87a.52.52,0,0,1,.89-.1l.67.83,7.53,9.52.93,1.18A.53.53,0,0,1,907.24,405.06Z"
     transform="translate(-44.77 -21.16)"
     fill="#fff"
     stroke="#fff"
     stroke-miterlimit="10"
     id="path73" />
  <polygon
     points="424.19 606.65 424.11 609.58 419.01 789.65 410.43 789.65 414.64 609.58 414.72 606.2 424.19 606.65"
     fill="#504f60"
     id="polygon75" />
  <polygon
     points="424.19 606.65 424.11 609.58 419.01 789.65 410.43 789.65 414.64 609.58 414.72 606.2 424.19 606.65"
     opacity="0.1"
     id="polygon77" />
  <polygon
     points="473.84 759.19 467.42 759.17 371.97 758.97 366.89 758.96 369.59 750.61 473.16 750.61 473.84 759.19"
     fill="#504f60"
     id="polygon79" />
  <polygon
     points="424.19 606.65 424.11 609.58 414.64 609.58 414.72 606.2 424.19 606.65"
     opacity="0.1"
     id="polygon81" />
  <rect
     x="411.9"
     y="602.25"
     width="15.91"
     height="5.98"
     fill="#504f60"
     id="rect83" />
  <polygon
     points="372.82 750.61 371.97 758.97 366.89 758.96 369.59 750.61 372.82 750.61"
     opacity="0.1"
     id="polygon85" />
  <polygon
     points="386.52 602.14 386.25 604.73 365.08 813.56 355.38 813.11 377.69 604.73 377.94 602.36 386.52 602.14"
     fill="#504f60"
     id="polygon87" />
  <polygon
     points="473.84 759.19 467.42 759.17 466.55 750.61 473.16 750.61 473.84 759.19"
     opacity="0.1"
     id="polygon89" />
  <polygon
     points="484 813.11 474.29 813.56 453.12 604.73 452.86 602.14 461.43 602.36 461.68 604.73 484 813.11"
     fill="#504f60"
     id="polygon91" />
  <rect
     x="311.38"
     y="396.23"
     width="213.91"
     height="205.11"
     fill="#fff"
     id="rect93" />
  <rect
     x="264.46"
     y="396.23"
     width="308"
     height="205.11"
     rx="4.13"
     fill="#fff"
     id="rect95" />
  <path
     d="M467.27,348.8v49.53h-8.34V348.8a4.17,4.17,0,1,1,8.34,0Z"
     transform="translate(-44.77 -21.16)"
     fill="#504f60"
     id="path97" />
  <rect
     x="414.16"
     y="372.66"
     width="8.35"
     height="4.51"
     opacity="0.1"
     id="rect99" />
  <path
     d="M470.55,397.2v16.36H455.66V397.2a2,2,0,0,1,2-2h10.83A2,2,0,0,1,470.55,397.2Z"
     transform="translate(-44.77 -21.16)"
     fill="#504f60"
     id="path101" />
  <circle
     cx="418.33"
     cy="384.39"
     r="3.16"
     opacity="0.1"
     id="circle103" />
  <circle
     cx="418.33"
     cy="383.71"
     r="3.16"
     fill="#3f3d56"
     id="circle105" />
  <rect
     x="410.89"
     y="390.37"
     width="14.89"
     height="2.03"
     opacity="0.1"
     id="rect107" />
  <rect
     x="404.79"
     y="393.08"
     width="27.08"
     height="4.51"
     opacity="0.1"
     id="rect109" />
  <rect
     x="404.79"
     y="391.72"
     width="27.08"
     height="4.51"
     fill="#504f60"
     id="rect111" />
  <path
     d="M364.63,596H476.21a6,6,0,0,1,6,6v0a0,0,0,0,1,0,0H358.65a0,0,0,0,1,0,0v0A6,6,0,0,1,364.63,596Z"
     opacity="0.1"
     id="path113" />
  <polygon
     points="377.94 602.36 386.52 602.14 386.25 604.73 377.69 604.73 377.94 602.36"
     opacity="0.1"
     id="polygon115" />
  <rect
     x="411.9"
     y="602.25"
     width="15.91"
     height="2.48"
     opacity="0.1"
     id="rect117" />
  <polygon
     points="461.68 604.73 453.12 604.73 452.86 602.14 461.43 602.36 461.68 604.73"
     opacity="0.1"
     id="polygon119" />
  <path
     d="M364.63,597.4H476.21a6,6,0,0,1,6,6v0a0,0,0,0,1,0,0H358.65a0,0,0,0,1,0,0v0a6,6,0,0,1,6-6Z"
     fill="#504f60"
     id="path121" />
  <path
     d="M562.59,441.48a1.49,1.49,0,0,1,1.71,1.64c-1.45,14-.52,28.34,1.05,42.31.73,6.39,1.72,13.15,4.55,17.89a1.51,1.51,0,0,1-.2,1.86,4,4,0,0,1-2.78.83l-44.63.25a1.49,1.49,0,0,1-1.46-1.84c3.59-15.3,2.82-32,1.38-47.87-.71-7.81-1.12-12,4.71-12.55,6-.54,12-.79,18-1.29C546.36,442.59,557.9,442.25,562.59,441.48Z"
     transform="translate(-44.77 -21.16)"
     fill="#fff"
     stroke="#33313f"
     stroke-miterlimit="10"
     stroke-width="3"
     id="path123" />
  <path
     d="M528.44,533.17a1.49,1.49,0,0,0-1.71,1.64c1.45,14,.52,28.34-1.06,42.31-.72,6.39-1.71,13.15-4.54,17.9a1.49,1.49,0,0,0,.2,1.85,4,4,0,0,0,2.78.83l44.63.26a1.51,1.51,0,0,0,1.46-1.85c-3.59-15.3-2.82-32-1.38-47.87.71-7.81,1.12-12-4.71-12.55s-12-.79-18-1.29C544.67,534.28,533.13,533.94,528.44,533.17Z"
     transform="translate(-44.77 -21.16)"
     fill="#fff"
     stroke="#33313f"
     stroke-miterlimit="10"
     stroke-width="3"
     id="path125" />
  <path
     d="M541.55,558.93a132.37,132.37,0,0,1,15.56.19,1.47,1.47,0,0,1,1.32,1.3l.49,4.09a.58.58,0,0,1-.12.53.55.55,0,0,1-.38.1c-2.18.06-4.36-.19-6.53,0-1.35.11-2.69.37-4,.52a47.75,47.75,0,0,1-6.66.12,33.56,33.56,0,0,1-9.27-1.14s.18-3.39.18-3.71c0-1.58-.05-1.72,1.58-1.76Z"
     transform="translate(-44.77 -21.16)"
     fill="none"
     stroke="#33313f"
     stroke-linecap="round"
     stroke-miterlimit="10"
     stroke-width="2"
     id="path127" />
  <path
     d="M541.55,577.37a130.24,130.24,0,0,0,15.56-.2,1.47,1.47,0,0,0,1.32-1.3l.49-4.08a.6.6,0,0,0-.12-.54.55.55,0,0,0-.38-.1c-2.18-.06-4.36.2-6.53,0-1.35-.1-2.69-.36-4-.51a46.26,46.26,0,0,0-6.66-.12,33.56,33.56,0,0,0-9.27,1.14s.18,3.38.18,3.71c0,1.58-.05,1.71,1.58,1.76Z"
     transform="translate(-44.77 -21.16)"
     fill="none"
     stroke="#33313f"
     stroke-linecap="round"
     stroke-miterlimit="10"
     stroke-width="2"
     id="path129" />
  <path
     d="M541.55,584.59a130.24,130.24,0,0,1,15.56.2,1.47,1.47,0,0,1,1.32,1.3l.49,4.08a.6.6,0,0,1-.12.54.55.55,0,0,1-.38.1c-2.18.06-4.36-.2-6.53,0-1.35.1-2.69.37-4,.52a47.75,47.75,0,0,1-6.66.11,33.55,33.55,0,0,1-9.27-1.13s.18-3.39.18-3.72c0-1.58-.05-1.71,1.58-1.75Z"
     transform="translate(-44.77 -21.16)"
     fill="none"
     stroke="#33313f"
     stroke-linecap="round"
     stroke-miterlimit="10"
     stroke-width="2"
     id="path131" />
  <path
     d="M548.12,499a6.61,6.61,0,0,1,.44,3.48.52.52,0,0,1-.07.27.54.54,0,0,1-.42.15l-9.5.37s.53-2.8.6-3c.33-1.14,1.16-.84,2.23-.9Z"
     transform="translate(-44.77 -21.16)"
     fill="#fff"
     stroke="#33313f"
     stroke-linecap="round"
     stroke-miterlimit="10"
     stroke-width="2"
     id="path133" />
  <path
     d="M562.47,499a6.61,6.61,0,0,1,.43,3.48.51.51,0,0,1-.06.27.56.56,0,0,1-.42.15l-9.51.37s.54-2.8.61-3c.32-1.14,1.15-.84,2.23-.9Z"
     transform="translate(-44.77 -21.16)"
     fill="#fff"
     stroke="#33313f"
     stroke-linecap="round"
     stroke-miterlimit="10"
     stroke-width="2"
     id="path135" />
  <path
     d="M556.74,451.26l1.28,11a3,3,0,0,1-2.73,3.31,142.81,142.81,0,0,1-24.38-.16,3,3,0,0,1-2.71-2.86,42.69,42.69,0,0,0-.86-5.83c-.33-2-.69-3.93,1.67-4.52s5.59-.17,8.17-.22q4.64-.09,9.25-.26C547.29,451.72,556.74,451.21,556.74,451.26Z"
     transform="translate(-44.77 -21.16)"
     fill="none"
     stroke="#33313f"
     stroke-miterlimit="10"
     stroke-width="3"
     id="path137" />
  <path
     d="M556.74,491,558,480a3,3,0,0,0-2.73-3.31,143.84,143.84,0,0,0-24.38.15,3,3,0,0,0-2.71,2.87,42.69,42.69,0,0,1-.86,5.83c-.33,2-.69,3.93,1.67,4.52s5.59.17,8.17.22c3.09.06,6.17.14,9.25.26C547.29,490.57,556.74,491.08,556.74,491Z"
     transform="translate(-44.77 -21.16)"
     fill="none"
     stroke="#33313f"
     stroke-miterlimit="10"
     stroke-width="3"
     id="path139" />
  <path
     d="M543.89,540.57q-.5,5.49-.63,11a52.07,52.07,0,0,1-10.91-1.25,1.93,1.93,0,0,1-1.79-2.36c-.07-2.28-1.27-7.37,1.94-7.69C533.46,540.17,543.88,540.75,543.89,540.57Z"
     transform="translate(-44.77 -21.16)"
     fill="none"
     stroke="#33313f"
     stroke-linecap="round"
     stroke-miterlimit="10"
     stroke-width="2"
     id="path141" />
  <path
     d="M367.32,490.61a3.19,3.19,0,0,1,3.52,3.47c-1.15,13.31-.24,26.94,1.26,40.21.67,5.9,1.56,12.11,3.92,16.76a2.62,2.62,0,0,1-2.32,3.82h0l-44.28.26a1.76,1.76,0,0,1-1.73-2.14c3.51-15.22,2.74-31.84,1.31-47.58-.72-7.81-1.12-12,4.7-12.55,6-.53,12-.78,17.95-1.29C352.92,491.47,362,491.19,367.32,490.61Z"
     transform="translate(-44.77 -21.16)"
     fill="#fff"
     stroke="#33313f"
     stroke-linecap="round"
     stroke-miterlimit="10"
     stroke-width="3"
     id="path143" />
  <path
     d="M428.92,490.36a1.59,1.59,0,0,0-1.82,1.76c1.43,13.93.5,28.25-1.07,42.17-.72,6.39-1.71,13.12-4.53,17.87a1.58,1.58,0,0,0,.42,2.07,4.19,4.19,0,0,0,2.54.64l44.51.26a1.6,1.6,0,0,0,1.55-2c-3.55-15.27-2.79-31.95-1.35-47.75.71-7.81,1.12-12-4.7-12.55-6-.53-12-.78-18-1.29C445,491.45,433.7,491.12,428.92,490.36Z"
     transform="translate(-44.77 -21.16)"
     fill="#fff"
     stroke="#33313f"
     stroke-miterlimit="10"
     stroke-width="3"
     id="path145" />
  <line
     x1="296.04"
     y1="478.29"
     x2="318.68"
     y2="508.49"
     fill="#fff"
     stroke="#33313f"
     stroke-linecap="round"
     stroke-miterlimit="10"
     stroke-width="2"
     id="line147" />
  <line
     x1="318.68"
     y1="476.03"
     x2="296.79"
     y2="510"
     fill="#fff"
     stroke="#33313f"
     stroke-linecap="round"
     stroke-miterlimit="10"
     stroke-width="2"
     id="line149" />
  <line
     x1="397.07"
     y1="479.71"
     x2="409.4"
     y2="496.16"
     fill="#fff"
     stroke="#33313f"
     stroke-linecap="round"
     stroke-miterlimit="10"
     stroke-width="2"
     id="line151" />
  <line
     x1="409.4"
     y1="478.47"
     x2="397.48"
     y2="496.98"
     fill="#fff"
     stroke="#33313f"
     stroke-linecap="round"
     stroke-miterlimit="10"
     stroke-width="2"
     id="line153" />
  <path
     d="M348.29,539.3a132.56,132.56,0,0,1,15.57.19,1.49,1.49,0,0,1,1.32,1.3l.48,4.09a.63.63,0,0,1-.11.54.7.7,0,0,1-.38.1c-2.18.06-4.37-.2-6.54,0-1.35.1-2.68.36-4,.51a47.72,47.72,0,0,1-6.66.12,33.44,33.44,0,0,1-9.26-1.14c-.06,0,.18-3.38.18-3.71,0-1.58-.06-1.71,1.57-1.76Z"
     transform="translate(-44.77 -21.16)"
     fill="none"
     stroke="#33313f"
     stroke-linecap="round"
     stroke-miterlimit="10"
     stroke-width="2"
     id="path155" />
  <path
     d="M443.41,524.2a130.43,130.43,0,0,1,15.57.2,1.47,1.47,0,0,1,1.32,1.3l.48,4.08a.63.63,0,0,1-.11.54.56.56,0,0,1-.38.1c-2.18.06-4.37-.2-6.54,0-1.35.1-2.68.37-4,.51a46.26,46.26,0,0,1-6.66.12,33.56,33.56,0,0,1-9.27-1.14c-.05,0,.18-3.38.18-3.71,0-1.58-.05-1.71,1.58-1.76Z"
     transform="translate(-44.77 -21.16)"
     fill="none"
     stroke="#33313f"
     stroke-linecap="round"
     stroke-miterlimit="10"
     stroke-width="2"
     id="path157" />
  <path
     d="M451.34,535.53a132.39,132.39,0,0,0-15.56.19,1.47,1.47,0,0,0-1.32,1.3L434,541.1a.57.57,0,0,0,.11.54.55.55,0,0,0,.38.1c2.18.06,4.36-.19,6.54,0,1.35.1,2.68.37,4,.52a49.33,49.33,0,0,0,6.66.12,33.47,33.47,0,0,0,9.27-1.14c.05,0-.18-3.39-.18-3.71,0-1.59.06-1.72-1.57-1.76Z"
     transform="translate(-44.77 -21.16)"
     fill="none"
     stroke="#33313f"
     stroke-linecap="round"
     stroke-miterlimit="10"
     stroke-width="2"
     id="path159" />
  <path
     d="M386.63,528.13s14.71-.75,17.35,0"
     transform="translate(-44.77 -21.16)"
     fill="none"
     stroke="#33313f"
     stroke-miterlimit="10"
     stroke-width="3"
     id="path161" />
  <path
     d="M404,520.21s6.41,6.41,6.41,7.92-8.3,6.79-8.3,6.79"
     transform="translate(-44.77 -21.16)"
     fill="none"
     stroke="#33313f"
     stroke-miterlimit="10"
     stroke-width="3"
     id="path163" />
  <path
     d="M482.84,514.45s13.33-6.24,16.06-6.54"
     transform="translate(-44.77 -21.16)"
     fill="none"
     stroke="#33313f"
     stroke-miterlimit="10"
     stroke-width="3"
     id="path165" />
  <path
     d="M495.92,500.58s8.35,3.52,8.92,4.91-5.12,9.42-5.12,9.42"
     transform="translate(-44.77 -21.16)"
     fill="none"
     stroke="#33313f"
     stroke-miterlimit="10"
     stroke-width="3"
     id="path167" />
  <path
     d="M482.7,530.43s13.55,5.75,15.6,7.59"
     transform="translate(-44.77 -21.16)"
     fill="none"
     stroke="#33313f"
     stroke-miterlimit="10"
     stroke-width="3"
     id="path169" />
  <path
     d="M501.76,530.89s3,8.57,2.3,9.93-10.43,2.48-10.43,2.48"
     transform="translate(-44.77 -21.16)"
     fill="none"
     stroke="#33313f"
     stroke-miterlimit="10"
     stroke-width="3"
     id="path171" />
  <path
     d="M535.29,499a6.61,6.61,0,0,1,.43,3.48.51.51,0,0,1-.06.27.56.56,0,0,1-.42.15l-9.51.37s.54-2.8.61-3c.32-1.14,1.16-.84,2.23-.9Z"
     transform="translate(-44.77 -21.16)"
     fill="#fff"
     stroke="#33313f"
     stroke-linecap="round"
     stroke-miterlimit="10"
     stroke-width="2"
     id="path173" />
</svg>
