<?xml version="1.0" encoding="UTF-8" standalone="no"?>
<svg
   xmlns:dc="http://purl.org/dc/elements/1.1/"
   xmlns:cc="http://creativecommons.org/ns#"
   xmlns:rdf="http://www.w3.org/1999/02/22-rdf-syntax-ns#"
   xmlns:svg="http://www.w3.org/2000/svg"
   xmlns="http://www.w3.org/2000/svg"
   xmlns:sodipodi="http://sodipodi.sourceforge.net/DTD/sodipodi-0.dtd"
   xmlns:inkscape="http://www.inkscape.org/namespaces/inkscape"
   id="b6192656-deba-422a-9855-e43972e91d46"
   data-name="Layer 1"
   width="794.23533"
   height="458.82848"
   viewBox="0 0 794.23533 458.82848"
   version="1.1"
   sodipodi:docname="undraw_Personal_notebook_re_d7dc.svg"
   inkscape:version="1.0.1 (1.0.1+r74)">
  <metadata
     id="metadata113">
    <rdf:RDF>
      <cc:Work
         rdf:about="">
        <dc:format>image/svg+xml</dc:format>
        <dc:type
           rdf:resource="http://purl.org/dc/dcmitype/StillImage" />
        <dc:title></dc:title>
      </cc:Work>
    </rdf:RDF>
  </metadata>
  <defs
     id="defs111" />
  <sodipodi:namedview
     pagecolor="#ffffff"
     bordercolor="#666666"
     borderopacity="1"
     objecttolerance="10"
     gridtolerance="10"
     guidetolerance="10"
     inkscape:pageopacity="0"
     inkscape:pageshadow="2"
     inkscape:window-width="1920"
     inkscape:window-height="1007"
     id="namedview109"
     showgrid="false"
     inkscape:zoom="1.1071949"
     inkscape:cx="540.41796"
     inkscape:cy="220.09528"
     inkscape:window-x="0"
     inkscape:window-y="0"
     inkscape:window-maximized="1"
     inkscape:current-layer="b6192656-deba-422a-9855-e43972e91d46"
     inkscape:document-rotation="0" />
  <path
     d="m 370.8544,428.20901 a 6.3093334,6.3093334 0 0 1 -3.11177,-0.82356 L 187.82869,325.66877 a 6.34872,6.34872 0 0 1 -2.39897,-8.64069 L 327.13489,66.383917 a 6.3390035,6.3390035 0 0 1 8.64021,-2.398976 L 515.68861,165.70161 a 6.3485805,6.3485805 0 0 1 2.39987,8.64021 L 376.38286,424.98556 a 6.30037,6.30037 0 0 1 -3.8232,2.99009 6.3749498,6.3749498 0 0 1 -1.70526,0.23336 z"
     fill="#e6e6e6"
     id="path2"
     style="fill:#e2e6e9;fill-opacity:1;stroke-width:0.929807" />
  <rect
     x="90.726105"
     y="317.90936"
     width="1.4690202"
     height="218.4287"
     transform="rotate(-60.51777)"
     fill="#ffffff"
     id="rect4"
     style="stroke-width:0.929807" />
  <rect
     x="64.283722"
     y="317.90936"
     width="1.4690202"
     height="218.4287"
     transform="rotate(-60.51777)"
     fill="#ffffff"
     id="rect6"
     style="stroke-width:0.929807" />
  <rect
     x="37.841335"
     y="317.90936"
     width="1.4690202"
     height="218.4287"
     transform="rotate(-60.51777)"
     fill="#ffffff"
     id="rect8"
     style="stroke-width:0.929807" />
  <rect
     x="11.398949"
     y="317.90933"
     width="1.4690202"
     height="218.4287"
     transform="rotate(-60.51777)"
     fill="#ffffff"
     id="rect10"
     style="stroke-width:0.929807" />
  <rect
     x="-15.043436"
     y="317.90936"
     width="1.4690202"
     height="218.4287"
     transform="rotate(-60.51777)"
     fill="#ffffff"
     id="rect12"
     style="stroke-width:0.929807" />
  <rect
     x="-41.485821"
     y="317.90936"
     width="1.4690202"
     height="218.4287"
     transform="rotate(-60.51777)"
     fill="#ffffff"
     id="rect14"
     style="stroke-width:0.929807" />
  <rect
     x="-67.928207"
     y="317.90933"
     width="1.4690202"
     height="218.4287"
     transform="rotate(-60.51777)"
     fill="#ffffff"
     id="rect16"
     style="stroke-width:0.929807" />
  <rect
     x="-94.37059"
     y="317.90936"
     width="1.4690202"
     height="218.4287"
     transform="rotate(-60.51777)"
     fill="#ffffff"
     id="rect18"
     style="stroke-width:0.929807" />
  <rect
     x="-120.81297"
     y="317.90936"
     width="1.4690202"
     height="218.4287"
     transform="rotate(-60.51777)"
     fill="#ffffff"
     id="rect20"
     style="stroke-width:0.929807" />
  <rect
     x="-147.25534"
     y="317.90933"
     width="1.4690202"
     height="218.4287"
     transform="rotate(-60.51777)"
     fill="#ffffff"
     id="rect22"
     style="stroke-width:0.929807" />
  <rect
     x="-173.69775"
     y="317.90936"
     width="1.4690202"
     height="218.4287"
     transform="rotate(-60.51777)"
     fill="#ffffff"
     id="rect24"
     style="stroke-width:0.929807" />
  <path
     d="m 354.11788,390.08694 a 6.3093334,6.3093334 0 0 1 -3.11177,-0.82357 L 171.09217,287.5467 A 6.34872,6.34872 0 0 1 168.6932,278.906 L 310.39837,28.261843 a 6.3390035,6.3390035 0 0 1 8.64021,-2.398976 L 498.95209,127.57954 a 6.3485805,6.3485805 0 0 1 2.39987,8.64021 L 359.64634,386.86349 a 6.30037,6.30037 0 0 1 -3.8232,2.99009 6.3749498,6.3749498 0 0 1 -1.70526,0.23336 z"
     fill="#f2f2f2"
     id="path26"
     style="fill:#f0f3f4;fill-opacity:1;stroke-width:0.929807" />
  <rect
     x="115.67476"
     y="284.57816"
     width="1.4690202"
     height="218.4287"
     transform="rotate(-60.51777)"
     fill="#ffffff"
     id="rect28"
     style="stroke-width:0.929807" />
  <rect
     x="89.232368"
     y="284.57816"
     width="1.4690202"
     height="218.4287"
     transform="rotate(-60.51777)"
     fill="#ffffff"
     id="rect30"
     style="stroke-width:0.929807" />
  <rect
     x="62.789982"
     y="284.57816"
     width="1.4690202"
     height="218.4287"
     transform="rotate(-60.51777)"
     fill="#ffffff"
     id="rect32"
     style="stroke-width:0.929807" />
  <rect
     x="36.347595"
     y="284.57816"
     width="1.4690202"
     height="218.4287"
     transform="rotate(-60.51777)"
     fill="#ffffff"
     id="rect34"
     style="stroke-width:0.929807" />
  <rect
     x="9.9052076"
     y="284.57816"
     width="1.4690202"
     height="218.4287"
     transform="rotate(-60.51777)"
     fill="#ffffff"
     id="rect36"
     style="stroke-width:0.929807" />
  <rect
     x="-16.537178"
     y="284.57816"
     width="1.4690202"
     height="218.4287"
     transform="rotate(-60.51777)"
     fill="#ffffff"
     id="rect38"
     style="stroke-width:0.929807" />
  <rect
     x="-42.979565"
     y="284.57816"
     width="1.4690202"
     height="218.4287"
     transform="rotate(-60.51777)"
     fill="#ffffff"
     id="rect40"
     style="stroke-width:0.929807" />
  <rect
     x="-69.421944"
     y="284.57816"
     width="1.4690202"
     height="218.4287"
     transform="rotate(-60.51777)"
     fill="#ffffff"
     id="rect42"
     style="stroke-width:0.929807" />
  <rect
     x="-95.864334"
     y="284.57816"
     width="1.4690202"
     height="218.4287"
     transform="rotate(-60.51777)"
     fill="#ffffff"
     id="rect44"
     style="stroke-width:0.929807" />
  <rect
     x="-122.30669"
     y="284.57816"
     width="1.4690202"
     height="218.4287"
     transform="rotate(-60.51777)"
     fill="#ffffff"
     id="rect46"
     style="stroke-width:0.929807" />
  <rect
     x="-148.74911"
     y="284.57816"
     width="1.4690202"
     height="218.4287"
     transform="rotate(-60.51777)"
     fill="#ffffff"
     id="rect48"
     style="stroke-width:0.929807" />
  <path
     d="M 336.18921,23.52684 H 48.658576 V 423.34371 H 336.18921 a 3.8944116,3.8944116 0 0 0 3.89432,-3.89432 V 27.421158 A 3.8944116,3.8944116 0 0 0 336.18921,23.52684 Z M 64.884902,412.3098 a 7.1395949,7.1395949 0 1 1 7.139585,-7.13958 7.1395577,7.1395577 0 0 1 -7.139585,7.13958 z m 0,-36.34699 a 7.1395856,7.1395856 0 1 1 7.139585,-7.13958 7.1395577,7.1395577 0 0 1 -7.139585,7.13961 z m 0,-36.34699 a 7.1395856,7.1395856 0 1 1 7.139585,-7.13958 7.1395577,7.1395577 0 0 1 -7.139585,7.13958 z m 0,-36.34698 a 7.1395856,7.1395856 0 1 1 7.139585,-7.13959 7.1395577,7.1395577 0 0 1 -7.139585,7.13959 z m 0,-36.34699 a 7.1395856,7.1395856 0 1 1 7.139585,-7.13959 7.1395577,7.1395577 0 0 1 -7.139585,7.13959 z m 0,-36.34699 a 7.1395856,7.1395856 0 1 1 7.139585,-7.13959 7.1395577,7.1395577 0 0 1 -7.139585,7.13959 z m 0,-36.34699 a 7.1395856,7.1395856 0 1 1 7.139585,-7.13959 7.1395577,7.1395577 0 0 1 -7.139585,7.13959 z m 0,-36.34699 a 7.1395856,7.1395856 0 1 1 7.139585,-7.13959 7.1395577,7.1395577 0 0 1 -7.139585,7.13959 z m 0,-36.34699 a 7.1395856,7.1395856 0 1 1 7.139585,-7.13959 7.1395577,7.1395577 0 0 1 -7.139585,7.13959 z m 0,-36.346976 a 7.1395949,7.1395949 0 1 1 7.139585,-7.139595 7.139567,7.139567 0 0 1 -7.139585,7.139595 z m 0,-36.346989 a 7.1395949,7.1395949 0 1 1 7.139585,-7.139595 7.139567,7.139567 0 0 1 -7.139585,7.139595 z"
     fill="#3f3d56"
     id="path50"
     style="stroke-width:0.929807" />
  <path
     d="m 48.658567,45.594658 c -1.92656,0 -18.822542,-0.09096 -18.822542,-3.245268 0,-3.154304 16.895982,-3.245267 18.822542,-3.245267 v 1.298104 c -9.951545,0 -16.404282,1.113973 -17.443462,1.947163 1.03918,0.833182 7.491917,1.947155 17.443462,1.947155 9.929359,0 16.375448,-1.109259 17.436339,-1.941436 -0.504885,-0.356535 -2.567299,-1.103829 -8.099221,-1.582066 l 0.111716,-1.293036 c 9.373716,0.810048 9.373716,2.306227 9.373716,2.869383 0,3.154305 -16.895991,3.245268 -18.82255,3.245268 z"
     fill="#2f2e41"
     id="path52"
     style="stroke-width:0.929807" />
  <path
     d="m 48.658567,81.292586 c -1.92656,0 -18.822542,-0.09095 -18.822542,-3.245267 0,-3.154314 16.895982,-3.245267 18.822542,-3.245267 v 1.29814 c -9.951545,0 -16.404282,1.113973 -17.443462,1.947155 1.03918,0.83319 7.491917,1.947164 17.443462,1.947164 9.929359,0 16.375448,-1.10926 17.436339,-1.941437 -0.504885,-0.356534 -2.567299,-1.103838 -8.099221,-1.582066 l 0.111716,-1.293036 c 9.373716,0.810048 9.373716,2.306228 9.373716,2.869384 0,3.154276 -16.895991,3.24523 -18.82255,3.24523 z"
     fill="#2f2e41"
     id="path54"
     style="stroke-width:0.929807" />
  <path
     d="m 48.658567,117.63957 c -1.92656,0 -18.822542,-0.0909 -18.822542,-3.24527 0,-3.15431 16.895982,-3.24526 18.822542,-3.24526 v 1.29811 c -9.951545,0 -16.404282,1.11397 -17.443462,1.94715 1.03918,0.8332 7.491917,1.94717 17.443462,1.94717 9.929359,0 16.375448,-1.10926 17.436339,-1.94144 -0.504885,-0.35653 -2.567299,-1.10384 -8.099221,-1.58206 l 0.111716,-1.29304 c 9.373716,0.81005 9.373716,2.30623 9.373716,2.86938 0,3.15431 -16.895991,3.24526 -18.82255,3.24526 z"
     fill="#2f2e41"
     id="path56"
     style="stroke-width:0.929807" />
  <path
     d="m 48.658567,153.98656 c -1.92656,0 -18.822542,-0.0909 -18.822542,-3.24527 0,-3.15431 16.895982,-3.24526 18.822542,-3.24526 v 1.29811 c -9.951545,0 -16.404282,1.11397 -17.443462,1.94715 1.03918,0.83319 7.491917,1.94717 17.443462,1.94717 9.929359,0 16.375448,-1.10926 17.436339,-1.94144 -0.504885,-0.35653 -2.567299,-1.10384 -8.099221,-1.58206 l 0.111716,-1.29304 c 9.373716,0.81005 9.373716,2.30623 9.373716,2.86938 0,3.15431 -16.895991,3.24526 -18.82255,3.24526 z"
     fill="#2f2e41"
     id="path58"
     style="stroke-width:0.929807" />
  <path
     d="m 48.658567,190.33355 c -1.92656,0 -18.822542,-0.0909 -18.822542,-3.24527 0,-3.15431 16.895982,-3.24526 18.822542,-3.24526 v 1.29811 c -9.951545,0 -16.404282,1.11397 -17.443462,1.94715 1.03918,0.83318 7.491917,1.94717 17.443462,1.94717 9.929359,0 16.375448,-1.10926 17.436339,-1.94144 -0.504885,-0.35653 -2.567299,-1.10384 -8.099221,-1.58207 l 0.111716,-1.29304 c 9.373716,0.81006 9.373716,2.30624 9.373716,2.86938 0,3.15432 -16.895991,3.24527 -18.82255,3.24527 z"
     fill="#2f2e41"
     id="path60"
     style="stroke-width:0.929807" />
  <path
     d="m 48.658567,226.68052 c -1.92656,0 -18.822542,-0.0909 -18.822542,-3.24527 0,-3.15431 16.895982,-3.24526 18.822542,-3.24526 v 1.2981 c -9.951545,0 -16.404282,1.11398 -17.443462,1.94716 1.03918,0.83318 7.491917,1.94717 17.443462,1.94717 9.929359,0 16.375448,-1.10926 17.436339,-1.94144 -0.504885,-0.35654 -2.567299,-1.10384 -8.099221,-1.58207 l 0.111716,-1.29304 c 9.373716,0.81006 9.373716,2.30624 9.373716,2.86938 0,3.15434 -16.895991,3.24527 -18.82255,3.24527 z"
     fill="#2f2e41"
     id="path62"
     style="stroke-width:0.929807" />
  <path
     d="m 48.658567,263.02753 c -1.92656,0 -18.822542,-0.091 -18.822542,-3.24527 0,-3.15431 16.895982,-3.24527 18.822542,-3.24527 v 1.29811 c -9.951545,0 -16.404282,1.11398 -17.443462,1.94716 1.03918,0.83318 7.491917,1.94716 17.443462,1.94716 9.929359,0 16.375448,-1.10925 17.436339,-1.94143 -0.504885,-0.35654 -2.567299,-1.10383 -8.099221,-1.58207 l 0.111716,-1.29303 c 9.373716,0.81004 9.373716,2.30623 9.373716,2.86938 0,3.1543 -16.895991,3.24526 -18.82255,3.24526 z"
     fill="#2f2e41"
     id="path64"
     style="stroke-width:0.929807" />
  <path
     d="m 48.658567,299.37452 c -1.92656,0 -18.822542,-0.091 -18.822542,-3.24527 0,-3.15431 16.895982,-3.24527 18.822542,-3.24527 v 1.29811 c -9.951545,0 -16.404282,1.11398 -17.443462,1.94716 1.03918,0.83318 7.491917,1.94715 17.443462,1.94715 9.929359,0 16.375448,-1.10925 17.436339,-1.94143 -0.504885,-0.35654 -2.567299,-1.10383 -8.099221,-1.58207 l 0.111716,-1.29303 c 9.373716,0.81004 9.373716,2.30623 9.373716,2.86938 0,3.15429 -16.895991,3.24527 -18.82255,3.24527 z"
     fill="#2f2e41"
     id="path66"
     style="stroke-width:0.929807" />
  <path
     d="m 48.658567,335.72151 c -1.92656,0 -18.822542,-0.091 -18.822542,-3.24527 0,-3.15431 16.895982,-3.24527 18.822542,-3.24527 v 1.2981 c -9.951545,0 -16.404282,1.11398 -17.443462,1.94717 1.03918,0.83318 7.491917,1.94715 17.443462,1.94715 9.929359,0 16.375448,-1.10926 17.436339,-1.94143 -0.504885,-0.35654 -2.567299,-1.10383 -8.099221,-1.58207 l 0.111716,-1.29303 c 9.373716,0.81004 9.373716,2.30622 9.373716,2.86938 0,3.1543 -16.895991,3.24527 -18.82255,3.24527 z"
     fill="#2f2e41"
     id="path68"
     style="stroke-width:0.929807" />
  <path
     d="m 48.658567,372.0685 c -1.92656,0 -18.822542,-0.091 -18.822542,-3.24527 0,-3.15431 16.895982,-3.24527 18.822542,-3.24527 v 1.2981 c -9.951545,0 -16.404282,1.11398 -17.443462,1.94717 1.03918,0.83318 7.491917,1.94715 17.443462,1.94715 9.929359,0 16.375448,-1.10926 17.436339,-1.94143 -0.504885,-0.35654 -2.567299,-1.10383 -8.099221,-1.58207 l 0.111716,-1.29304 c 9.373716,0.81005 9.373716,2.30623 9.373716,2.86939 0,3.1543 -16.895991,3.24527 -18.82255,3.24527 z"
     fill="#2f2e41"
     id="path70"
     style="stroke-width:0.929807" />
  <path
     d="m 48.658567,408.41548 c -1.92656,0 -18.822542,-0.091 -18.822542,-3.24526 0,-3.15431 16.895982,-3.24527 18.822542,-3.24527 v 1.2981 c -9.951545,0 -16.404282,1.11398 -17.443462,1.94717 1.03918,0.83318 7.491917,1.94715 17.443462,1.94715 9.929359,0 16.375448,-1.10926 17.436339,-1.94143 -0.504885,-0.35654 -2.567299,-1.10383 -8.099221,-1.58207 l 0.111716,-1.29304 c 9.373716,0.81005 9.373716,2.30623 9.373716,2.86939 0,3.1543 -16.895991,3.24526 -18.82255,3.24526 z"
     fill="#2f2e41"
     id="path72"
     style="stroke-width:0.929807" />
  <path
     d="M 277.44988,176.37891 H 134.65814 a 4.2236747,4.2236747 0 0 1 -4.21884,-4.21884 v -55.8186 a 4.2236747,4.2236747 0 0 1 4.21884,-4.21885 h 142.79174 a 4.2236282,4.2236282 0 0 1 4.21885,4.21885 v 55.81859 a 4.2236282,4.2236282 0 0 1 -4.21885,4.21885 z"
     fill="#ffffff"
     id="path74"
     style="stroke-width:0.929807" />
  <path
     d="m 224.2275,131.26969 h -36.34697 a 3.245267,3.245267 0 1 1 0,-6.49053 h 36.34699 a 3.245267,3.245267 0 0 1 0,6.49053 z"
     fill="#93eb99"
     id="path76"
     style="stroke-width:0.929807" />
  <path
     d="m 244.34816,147.49603 h -76.5883 a 3.24527,3.24527 0 0 1 0,-6.49054 h 76.5883 a 3.24527,3.24527 0 0 1 0,6.49054 z"
     fill="#93eb99"
     id="path78"
     style="stroke-width:0.929807" />
  <path
     d="m 244.34816,163.72238 h -76.5883 a 3.245267,3.245267 0 0 1 0,-6.49053 h 76.5883 a 3.245267,3.245267 0 0 1 0,6.49053 z"
     fill="#93eb99"
     id="path80"
     style="stroke-width:0.929807" />
  <path
     d="m 767.21425,450.14862 h -282.9346 a 1.1071069,1.1071069 0 1 1 0,-2.21421 h 282.9346 a 1.1071115,1.1071115 0 0 1 0,2.21421 z"
     fill="#3f3d56"
     id="path106"
     style="stroke-width:0.929807" />
  <g
     id="g1010"
     transform="matrix(0.92980667,0,0,0.92980667,-240.90132,990.87938)">
    <path
       d="m 815.34306,-777.53273 112.51752,1.97871 a 13.508,13.508 0 1 0 0.475,-27.01176 l -112.51779,-1.97825 a 6.326,6.326 0 0 0 -6.436,6.21385 l -0.25243,14.36175 a 6.326,6.326 0 0 0 5.791,6.41438 q 0.21,0.0175 0.4227,0.0213 z"
       fill="#72e080"
       id="path938" />
    <path
       d="m 837.07253,-773.86209 92.31126,4.214 a 6.32533,6.32533 0 0 0 6.60785,-6.03028 l 0.97687,-21.40108 a 6.32615,6.32615 0 0 0 -6.03075,-6.6079 l -92.31126,-4.214 a 6.32534,6.32534 0 0 0 -6.60786,6.03028 l -0.97687,21.40108 a 6.334,6.334 0 0 0 5.79216,6.59282 c 0.0789,0.007 0.1588,0.0118 0.2386,0.0151 z"
       fill="#2f2e41"
       id="path940" />
    <path
       d="m 993.17812,-590.25471 v -119.71688 a 6.33294,6.33294 0 0 0 -6.32578,-6.32577 h -14.36415 a 6.33294,6.33294 0 0 0 -6.32577,6.32577 v 119.71688 a 6.333,6.333 0 0 0 6.32577,6.32578 h 14.36415 a 6.333,6.333 0 0 0 6.32578,-6.32578 z"
       fill="#72e080"
       id="path942" />
    <path
       d="m 955.48368,-590.25471 v -119.71688 a 6.33294,6.33294 0 0 0 -6.32578,-6.32577 h -14.36417 a 6.33294,6.33294 0 0 0 -6.32577,6.32577 v 119.71688 a 6.333,6.333 0 0 0 6.32577,6.32578 h 14.36417 a 6.333,6.333 0 0 0 6.32578,-6.32578 z"
       fill="#72e080"
       id="path944" />
    <circle
       cx="-955.97229"
       cy="-883.966"
       r="49.633011"
       fill="#72e080"
       id="circle946"
       transform="scale(-1,1)" />
    <path
       d="m 929.10622,-867.0196 a 11.77114,11.77114 0 0 1 -4.29851,-2.52322 7.91545,7.91545 0 0 1 -2.31377,-6.26641 5.32492,5.32492 0 0 1 2.36735,-4.09821 c 1.77491,-1.13854 4.1488,-1.14191 6.5658,-0.0768 l -0.0915,-19.376 1.94626,-0.009 0.10766,22.77856 -1.49969,-0.94336 c -1.739,-1.09206 -4.22258,-1.86075 -5.97745,-0.73479 a 3.41953,3.41953 0 0 0 -1.48076,2.646 5.98144,5.98144 0 0 0 1.7204,4.67226 c 2.14921,2.053 5.28486,2.695 8.86064,3.26875 l -0.30847,1.92159 a 32.0793,32.0793 0 0 1 -5.59797,-1.25915 z"
       fill="#2f2e41"
       id="path948" />
    <rect
       x="-796.03088"
       y="-1011.8997"
       width="10.48295"
       height="1.9461499"
       transform="matrix(-0.99139193,-0.13092763,-0.13092763,0.99139193,0,0)"
       fill="#2f2e41"
       id="rect950" />
    <rect
       x="-829.11957"
       y="-1011.9007"
       width="10.48295"
       height="1.9461499"
       transform="matrix(-0.99139193,-0.13092763,-0.13092763,0.99139193,0,0)"
       fill="#2f2e41"
       id="rect952" />
    <path
       d="m 1057.0319,-894.78691 -71.26132,87.0973 a 13.50742,13.50742 0 1 0 20.90822,17.10689 l 71.2618,-87.097 a 6.32522,6.32522 0 0 0 -0.8899,-8.90145 l -11.117,-9.09607 a 6.32631,6.32631 0 0 0 -8.9018,0.89031 z"
       fill="#72e080"
       id="path954" />
    <path
       d="m 1033.2655,-875.34799 -58.51603,71.51947 a 6.32524,6.32524 0 0 0 0.88989,8.90146 l 18.98843,15.536 a 6.32525,6.32525 0 0 0 8.90151,-0.8902 l 58.5163,-71.519 a 6.333,6.333 0 0 0 -0.8899,-8.90146 l -18.9886,-15.53643 a 6.326,6.326 0 0 0 -8.9016,0.89021 z"
       fill="#2f2e41"
       id="path956" />
    <path
       d="m 968.41501,-905.92591 c -8.88642,-5.842 -20.05474,-3.21385 -29.93149,-2.45068 -8.92449,0.68958 -19.5023,0.0102 -25.77919,-7.2812 -6.53025,-7.58569 -5.98456,-18.84844 -0.578,-26.87193 5.32164,-7.89748 14.15542,-12.88423 23.50076,-14.1991 a 37.70238,37.70238 0 0 1 29.29987,8.09134 l -3.17621,1.31563 c 1.851,-17.695 14.86116,-33.69141 32.31665,-38.03043 17.6613,-4.39017 37.412,3.10249 46.8345,18.84972 9.2892,15.52433 8.1888,37.18691 -5.182,50.08791 -6.4211,6.19559 -15.1557,9.35193 -24.02,7.66768 -8.1751,-1.55331 -15.43887,-7.51289 -16.96876,-15.92869 -1.41822,-7.80151 1.6799,-16.66287 9.26836,-20.07 a 15.13026,15.13026 0 0 1 13.2245,0.21132 12.85459,12.85459 0 0 1 6.5184,10.28271 11.36326,11.36326 0 0 1 -1.2092,5.93593 c -1.0535,2.15034 -4.2638,0.26647 -3.2131,-1.87814 a 8.62848,8.62848 0 0 0 -1.7827,-9.47043 c -2.7584,-2.88153 -7.1127,-3.36015 -10.7781,-2.182 -6.7069,2.15576 -9.66812,9.84976 -8.40427,16.37686 1.41563,7.311 7.65697,12.00879 14.76367,13.21166 7.7283,1.30811 15.265,-1.95524 20.6297,-7.4438 11.2353,-11.49445 12.2076,-30.00771 4.6286,-43.72639 -7.6887,-13.91713 -24.0894,-21.39016 -39.71146,-19.05571 -15.4477,2.30839 -28.16974,14.4586 -32.13382,29.44033 a 37.70213,37.70213 0 0 0 -1.0598,5.72144 1.8891,1.8891 0 0 1 -3.17621,1.31563 c -13.19992,-10.96276 -35.1547,-9.78694 -45.97811,4.00445 -5.30794,6.76348 -6.87223,17.2663 -0.67378,24.06039 5.902,6.46913 15.70329,6.47566 23.76434,5.76714 10.31193,-0.90635 21.648,-3.03723 30.885,3.03522 1.99283,1.3101 0.13072,4.53375 -1.87815,3.21311 z"
       fill="#2f2e41"
       id="path972" />
    <path
       d="m 924.15262,-668.22372 h 74.42318 a 5.58785,5.58785 0 0 0 5.5818,-5.58174 v -24.80774 a 5.58785,5.58785 0 0 0 -5.5818,-5.58174 h -74.42318 a 5.58785,5.58785 0 0 0 -5.58174,5.58174 v 24.80774 a 5.58785,5.58785 0 0 0 5.58174,5.58174 z"
       fill="#2f2e41"
       id="path974" />
    <path
       d="m 921.60954,-790.53204 c 2.33019,-11.91632 11.37993,-21.35307 23.12582,-25.23321 -4.24165,-1.36485 -6.93849,-3.38593 -6.93849,-5.64625 0,-4.11029 8.88545,-7.44232 19.84619,-7.44232 10.96074,0 19.84619,3.332 19.84619,7.44232 0,2.29333 -2.77013,4.34257 -7.11943,5.70772 18.00779,5.36885 31.07838,21.04085 31.07838,39.49584 0,0 5.5432,35.53515 9.8955,63.94079 2.7844,18.17276 -12.4295,34.41589 -32.22909,34.41589 h -69.63344 c -4.56136,0 -8.27215,-3.44013 -8.27215,-7.66883 0,0 12.83116,-66.30256 20.40052,-105.01195 z"
       fill="#2f2e41"
       id="path976" />
  </g>
</svg>
